HIERARCHY
ROOT Hips
{
  OFFSET 179.979 97.3047 303.174
  CHANNELS 6 Xposition Yposition Zposition Zrotation Xrotation Yrotation
  JOINT Spine
  {
    OFFSET 0.000859786 9.92346 -1.22733
    CHANNELS 3 Zrotation Xrotation Yrotation
    JOINT Spine1
    {
      OFFSET 0 11.732 0
      CHANNELS 3 Zrotation Xrotation Yrotation
      JOINT Spine2
      {
        OFFSET 0 13.4588 0
        CHANNELS 3 Zrotation Xrotation Yrotation
        JOINT Neck
        {
          OFFSET 2.54812e-05 15.0278 0.877907
          CHANNELS 3 Zrotation Xrotation Yrotation
          JOINT Head
          {
            OFFSET 0 10.3218 3.14243
            CHANNELS 3 Zrotation Xrotation Yrotation
            End Site
            {
              OFFSET 0 0 0
            }
          }
        }
        JOINT LeftShoulder
        {
          OFFSET 6.10582 9.10629 0.757062
          CHANNELS 3 Zrotation Xrotation Yrotation
          JOINT LeftArm
          {
            OFFSET 0 12.9223 0
            CHANNELS 3 Zrotation Xrotation Yrotation
            JOINT LeftForeArm
            {
              OFFSET 0 27.4047 0
              CHANNELS 3 Zrotation Xrotation Yrotation
              JOINT LeftHand
              {
                OFFSET -1.28204e-05 27.6145 0
                CHANNELS 3 Zrotation Xrotation Yrotation
                End Site
                {
                  OFFSET 0 0 0
                }
              }
            }
          }
        }
        JOINT RightShoulder
        {
          OFFSET -6.1057 9.10638 0.757076
          CHANNELS 3 Zrotation Xrotation Yrotation
          JOINT RightArm
          {
            OFFSET 0 12.9223 0
            CHANNELS 3 Zrotation Xrotation Yrotation
            JOINT RightForeArm
            {
              OFFSET 0 27.4047 0
              CHANNELS 3 Zrotation Xrotation Yrotation
              JOINT RightHand
              {
                OFFSET 1.28428e-05 27.6145 1.44975e-05
                CHANNELS 3 Zrotation Xrotation Yrotation
                End Site
                {
                  OFFSET 0 0 0
                }
              }
            }
          }
        }
      }
    }
  }
  JOINT LeftUpLeg
  {
    OFFSET 9.12387 -6.65719 -0.0554031
    CHANNELS 3 Zrotation Xrotation Yrotation
    JOINT LeftLeg
    {
      OFFSET 0 40.5994 0
      CHANNELS 3 Zrotation Xrotation Yrotation
      JOINT LeftFoot
      {
        OFFSET 0 42.099 0
        CHANNELS 3 Zrotation Xrotation Yrotation
        JOINT LeftToeBase
        {
          OFFSET 0 15.7216 0
          CHANNELS 3 Zrotation Xrotation Yrotation
          End Site
          {
            OFFSET 0 0 0
          }
        }
      }
    }
  }
  JOINT RightUpLeg
  {
    OFFSET -9.12503 -6.6556 -0.0553527
    CHANNELS 3 Zrotation Xrotation Yrotation
    JOINT RightLeg
    {
      OFFSET 0 40.5994 0
      CHANNELS 3 Zrotation Xrotation Yrotation
      JOINT RightFoot
      {
        OFFSET 0 42.099 0
        CHANNELS 3 Zrotation Xrotation Yrotation
        JOINT RightToeBase
        {
          OFFSET 0 15.7216 0
          CHANNELS 3 Zrotation Xrotation Yrotation
          End Site
          {
            OFFSET 0 0 0
          }
        }
      }
    }
  }
}
MOTION
Frames:	11
Frame Time:	0.0333333
87.5962 98.1247 145.39 0.644917 3.27652 -5.8917 0.0106453 -6.88127 0.155497 -0.00472357 0.143274 0.340826 -0.0432629 6.73762 0.347565 4.7301 11.7162 -1.93172 -4.64444 -20.1374 0.0243108 -86.5576 -19.0961 89.8793 3.69248 12.2378 -13.9183 41.4397 -29.2372 -1.33672 -8.62052 -12.2533 -0.337042 88.7888 -14.7724 -90.2223 -8.78825 10.2819 24.6229 -36.5365 -16.7071 0.983738 4.38079 -14.1062 -4.94137 -176.561 9.43446 -11.1804 1.12768 -21.5299 -5.12524 15.32 76.5201 -17.624 -0.965265 26.367 -3.60229 174.901 8.03944 9.96593 -3.485 -19.0453 6.66586 -18.0702 77.8065 24.9338 0.96354 26.3682 3.55537 
87.5964 98.1247 145.394 0.644917 3.27652 -5.8917 0.0106453 -6.88127 0.155497 -0.000416785 0.143274 0.340824 -0.0391919 6.73762 0.347096 4.66637 11.7761 -1.84709 -4.48024 -20.2071 0.0801437 -86.5776 -19.0955 89.8804 3.69384 12.2218 -13.8795 41.4134 -29.2298 -1.33663 -8.56461 -12.2677 -0.36164 88.7696 -14.7502 -90.2263 -8.77333 10.3045 24.6253 -36.5371 -16.6775 0.983586 4.38135 -14.1626 -4.9426 -176.561 9.4426 -11.1691 1.12386 -21.5389 -5.13434 15.3372 76.5152 -17.6397 -0.965265 26.367 -3.60229 174.901 8.03944 9.96593 -3.48513 -19.0451 6.67158 -18.0741 77.8006 24.9409 0.96354 26.3682 3.55537 
87.5971 98.1247 145.404 0.644623 3.27655 -5.88655 0.0106453 -6.88127 0.155497 0.00900188 0.147902 0.34082 -0.0302888 6.74226 0.34607 4.6304 11.8216 -1.71657 -4.33845 -20.2902 0.195058 -86.6267 -19.0943 89.8803 3.70342 12.1817 -13.8002 41.3628 -29.2108 -1.33638 -8.47249 -12.2639 -0.454193 88.7339 -14.7227 -90.2343 -8.76719 10.347 24.6294 -36.5381 -16.6168 0.983274 4.3988 -14.2872 -4.94473 -176.564 9.4531 -11.1423 1.11552 -21.5523 -5.15576 15.383 76.5036 -17.6814 -0.965265 26.367 -3.60229 174.901 8.03944 9.96593 -3.49035 -19.0447 6.68481 -18.0877 77.7864 24.9617 0.96354 26.3682 3.55537 
87.5979 98.1247 145.412 0.643946 3.27662 -5.87471 0.0106453 -6.88127 0.155497 0.0181019 0.156272 0.340817 -0.021532 6.75064 0.345061 4.64537 11.8349 -1.6181 -4.29844 -20.3626 0.300088 -86.6589 -19.0941 89.88 3.72576 12.1658 -13.7658 41.3625 -29.1992 -1.33623 -8.4628 -12.2056 -0.535908 88.7115 -14.7063 -90.2394 -8.77553 10.3767 24.637 -36.5495 -16.5743 0.983003 4.46252 -14.34 -4.88077 -176.567 9.46557 -11.1148 1.10272 -21.5707 -5.1736 15.4217 76.4918 -17.7129 -0.965265 26.367 -3.60229 174.901 8.03944 9.96593 -3.49774 -19.0441 6.70091 -18.1085 77.7701 24.9905 0.96354 26.3682 3.55537 
87.5991 98.1281 145.418 0.643061 3.28049 -5.85252 0.0106453 -6.88127 0.155497 0.0238969 0.164861 0.340815 -0.0156683 6.75921 0.344386 4.68349 11.8069 -1.55525 -4.3102 -20.3947 0.379094 -86.6638 -19.0862 89.8802 3.74641 12.1816 -13.7624 41.4028 -29.1986 -1.33622 -8.48192 -12.1581 -0.521134 88.7055 -14.6893 -90.2409 -8.77768 10.3923 24.6461 -36.5726 -16.5572 0.982588 4.52309 -14.364 -4.80977 -176.568 9.48416 -11.0909 1.09149 -21.5896 -5.18161 15.436 76.4787 -17.7151 -0.965265 26.367 -3.60229 174.901 8.03936 9.96884 -3.50659 -19.0435 6.7188 -18.1353 77.7532 25.0258 0.96354 26.3682 3.55537 
87.5997 98.1325 145.42 0.647485 3.28698 -5.81972 0.0106453 -6.88127 0.155497 0.0270849 0.172131 0.340814 -0.0124608 6.76648 0.344016 4.72114 11.7329 -1.53104 -4.33518 -20.3721 0.418296 -86.6566 -19.0684 89.8811 3.7611 12.202 -13.7865 41.4744 -29.2092 -1.33636 -8.49666 -12.1103 -0.417899 88.7146 -14.6596 -90.2435 -8.75785 10.3939 24.6546 -36.6019 -16.5694 0.98287 4.55532 -14.3638 -4.786 -176.567 9.5013 -11.0742 1.08108 -21.5977 -5.17863 15.419 76.4628 -17.6809 -0.965265 26.367 -3.60229 174.899 8.04257 9.97911 -3.51772 -19.0428 6.73697 -18.1643 77.7361 25.0637 0.96354 26.3682 3.55537 
87.6004 98.1352 145.42 0.652646 3.29533 -5.7817 0.0106453 -6.88127 0.155497 0.0287456 0.179091 0.340813 -0.0107258 6.77345 0.343816 4.73237 11.6165 -1.5367 -4.34207 -20.3104 0.414956 -86.6429 -19.0459 89.8827 3.7765 12.2175 -13.8439 41.576 -29.2374 -1.33673 -8.45056 -12.0593 -0.159847 88.731 -14.626 -90.2467 -8.72409 10.3851 24.6558 -36.6233 -16.6011 0.984618 4.55725 -14.3303 -4.78228 -176.57 9.52069 -11.0596 1.07153 -21.6024 -5.17114 15.3944 76.4461 -17.6371 -0.965265 26.367 -3.60229 174.896 8.04782 9.99239 -3.52859 -19.0422 6.755 -18.1945 77.7201 25.1027 0.96354 26.3682 3.55537 
87.601 98.1353 145.42 0.658298 3.30491 -5.74275 0.0106453 -6.88127 0.155497 0.0304076 0.186911 0.340812 -0.00900461 6.78126 0.343618 4.72152 11.4761 -1.56059 -4.3332 -20.2402 0.382704 -86.6254 -19.0247 89.8847 3.79408 12.227 -13.8967 41.672 -29.2475 -1.33686 -8.3969 -12.1004 -0.037693 88.75 -14.5998 -90.2497 -8.68781 10.3652 24.6467 -36.6258 -16.6465 0.989582 4.51594 -14.2726 -4.79342 -176.573 9.54189 -11.0477 1.06276 -21.6064 -5.16165 15.366 76.4306 -17.5884 -0.965265 26.367 -3.60229 174.892 8.05791 10.0051 -3.53989 -19.0474 6.77166 -18.2255 77.7063 25.1425 0.96354 26.3682 3.55537 
87.6015 98.1352 145.415 0.664307 3.3153 -5.70679 0.0106324 -6.87653 0.155496 0.032013 0.196376 0.340812 -0.00734969 6.79075 0.343428 4.68774 11.3385 -1.58756 -4.30945 -20.181 0.337423 -86.6099 -19.0129 89.8858 3.82034 12.2201 -13.9287 41.7456 -29.2513 -1.33691 -8.36851 -12.1121 0.0314436 88.7639 -14.5834 -90.2512 -8.65957 10.3363 24.6287 -36.5992 -16.6989 0.994167 4.43488 -14.2131 -4.83479 -176.576 9.56681 -11.0386 1.05533 -21.61 -5.15213 15.3357 76.4161 -17.5382 -0.965265 26.367 -3.60229 174.892 8.07132 10.0143 -3.551 -19.0539 6.7878 -18.2599 77.6944 25.1848 0.96354 26.3682 3.55537 
87.6018 98.1349 145.409 0.670327 3.32722 -5.67723 0.0106176 -6.87113 0.155494 0.0335103 0.20719 0.340812 -0.00580607 6.80154 0.34325 4.63318 11.2073 -1.60882 -4.26661 -20.1433 0.288803 -86.5966 -19.0172 89.8855 3.8588 12.2049 -13.9398 41.7877 -29.2504 -1.3369 -8.34969 -12.0985 0.0556131 88.7673 -14.5781 -90.252 -8.64525 10.3006 24.5974 -36.5418 -16.7505 0.997594 4.3378 -14.1744 -4.89316 -176.577 9.59131 -11.036 1.04817 -21.6131 -5.14227 15.3072 76.4032 -17.4903 -0.965265 26.367 -3.60229 174.892 8.08986 10.0174 -3.562 -19.0619 6.80321 -18.298 77.6848 25.2295 0.96354 26.3682 3.55537 
87.6019 98.1346 145.401 0.676388 3.33957 -5.65392 0.010603 -6.8658 0.155492 0.0348551 0.217849 0.340811 -0.00441238 6.81221 0.34309 4.63497 11.0895 -1.65007 -4.29139 -20.112 0.244259 -86.5715 -19.0249 89.8855 3.88941 12.1963 -13.9435 41.7994 -29.2407 -1.33677 -8.33005 -12.0959 0.0709966 88.7717 -14.577 -90.2514 -8.63215 10.2644 24.6057 -36.487 -16.76 0.999396 4.25871 -14.1673 -4.99954 -176.578 9.61756 -11.0407 1.04338 -21.6168 -5.13093 15.2778 76.3911 -17.4426 -0.965265 26.367 -3.60229 174.892 8.10983 10.015 -3.57161 -19.0695 6.81787 -18.3362 77.6764 25.2733 0.96354 26.3682 3.55537 
